/* XPM */
static char *_[] = {
/* columns rows colors chars-per-pixel */
"32 32 14 1 ",
"  c #181526",
". c #26243A",
"X c #2B2941",
"o c #393A56",
"O c #3E405D",
"+ c #4E5371",
"@ c #606375",
"# c #70758C",
"$ c #72788F",
"% c #7D7E8A",
"& c #848594",
"* c #8D90A1",
"= c #8F93A4",
"- c #979CAE",
/* pixels */
"+++++++++++++++O+++++++++++++++O",
"+oooooooooooooo.+oooooooooooooo.",
"+oooooooooooooo.+oooooooooooooo.",
"+oooooooooooooo.+oooooooooooooo.",
"+oooooooooooooo.+oooooooooooooo.",
"+oooooooooooooo.+oooooooooooooo.",
"+oooooooooooooo.+oooooooooooooo.",
"+oooooooooooo**&-**oooooooooooo.",
"+ooooooooooo#**&-**#ooooooooooo.",
"+oooooooooo#***&-***#oooooooooo.",
"+oooooooooo****&-****oooooooooo.",
"+oooooooooo****&-****oooooooooo.",
"+oooooooooo#*%%%%%%*#oooooooooo.",
"+oooooooooo@@======@@oooooooooo.",
"+ooooooooo $$======$$ ooooooooo.",
"+........ O$$$====$$$O ........O",
"+++++++++ O$$$====$$$O +++++++++",
"+oooooooo OO$$====$$OO oooooooo.",
"+oooooooo .O$$====$$O. oooooooo.",
"+oooooooo ..OO====OO.. oooooooo.",
"+oooooooo ..XOOOOOOX.. oooooooo.",
"+oooooooo ..XooOOooX.. oooooooo.",
"+oooooooo ..XooOOooX.. oooooooo.",
"+oooooooo ..XooOOooX.. oooooooo.",
"+ooooooooo .XooOOooX. ooooooooo.",
"+oooooooooo XooOOooX oooooooooo.",
"+ooooooooooo ooOOoo ooooooooooo.",
"+oooooooooooo      oooooooooooo.",
"+oooooooooooooo.+oooooooooooooo.",
"+oooooooooooooo.+oooooooooooooo.",
"+oooooooooooooo.+oooooooooooooo.",
"+..............O+..............O"
};
