/* XPM */
static char *_[] = {
/* columns rows colors chars-per-pixel */
"32 32 16 1 ",
"  c black",
". c gray13",
"X c #26243A",
"o c #1E1D59",
"O c #393A56",
"+ c #3E405D",
"@ c #4E5371",
"# c #9E7020",
"$ c #E6B545",
"% c #FFEA7F",
"& c #7395E6",
"* c #FFEE96",
"= c #FFDDAD",
"- c #FFE2BA",
"; c #ABD5FF",
": c white",
/* pixels */
"@@@@@@@@@@@@@@@+@@@@@@@@@@@@@@@+",
"@OOOOOOOOOOOOOOX@OOOOOOOOOOOOOOX",
"@OOOOOOOOOOOOOOX@OOOOOOOOOOOOOOX",
"@OOOOOOOOOOOOOOX@OOOOOOOOOOOOOOX",
"@OOOOOOOOOOO#########OOOOOOOOOOX",
"@OOOOOOO--##-:::--:-##--oOOOOOOX",
"@OOOOOOO-#:-:-::::::-:#-oOOOOOOX",
"@OOOOOOO#--::::::::::::##oOOOOOX",
"@OOOOOOO#-::--:::-::::-##oOOOOOX",
"@OOOOOO#::::--::::--::--## OOOOX",
"@OOOOOO#-:::::::::-:::::#ooOoOOX",
"@OOOOOO#::::::::::::::-:#&:ooOOX",
"@OOOOOO#::::-:::::::-::-#&::oOOX",
"@OOOOOO#-::-:::-::::::##oo&:oOOX",
"@OOOOOO#::--::-:::-::-#o=oo:oOOX",
"@XXXXXX#:-:::::::---##-o#oo;oXX+",
"@@@@@@@#::-:#-::-###--%oooo:o@@@",
"@OOOOOO#-::-##--#---##%oooo;oOOX",
"@OOOOOO##---#$##$$$##%o-Ooo&oOOX",
"@OOOOOO#=####$$$$$$##%o*o&oooOOX",
"@OOOOOOO#o::%$$$$$$##%oo&ooo&OOX",
"@OOOOOOOOo::%#######%%o&oooooOOX",
"@OOOOOOOOOo:%#######%ooooooooOOX",
"@OOOOOOOooo::$$$$$$$%oooOoooOOOX",
"@OOOOOOO.oo%:$$$$$$$oo%ooooOOOOX",
"@OOOOOOO.Ooo%::::%%ooo%oooOOOOOX",
"@OOOOOOO..oooooooooooooOOOOOOOOX",
"@OOOOOOO..oooooooooooooOOOOOOOOX",
"@OOOOOOOOOOOOOOX@OOOOOOOOOOOOOOX",
"@OOOOOOOOOOOOOOX@OOOOOOOOOOOOOOX",
"@OOOOOOOOOOOOOOX@OOOOOOOOOOOOOOX",
"@XXXXXXXXXXXXXX+@XXXXXXXXXXXXXX+"
};
