/* XPM */
static char *floor[] = {
/* columns rows colors chars-per-pixel */
"32 32 5 1 ",
"  c #4E5371",
". c #3E405D",
"X c #393A56",
"o c #26243A",
"O c white",
/* pixels */
"               .               .",
" XXXXXXXXXXXXXXo XXXXXXXXXXXXXXo",
" XXXXXXXXXXXXXXo XXXXXXXXXXXXXXo",
" XXXXXXXXXXXXXXo XXXXXXXXXXXXXXo",
" XXXXXXXXXXXXXXo XXXXXXXXXXXXXXo",
" XXXXXXXXXXXXXXo XXXXXXXXXXXXXXo",
" XXXXXXXXXXXXXXo XXXXXXXXXXXXXXo",
" XXXXXXXXXXXXXXo XXXXXXXXXXXXXXo",
" XXXXXXXXXXXXXXo XXXXXXXXXXXXXXo",
" XXXXXXXXXXXXXXo XXXXXXXXXXXXXXo",
" XXXXXXXXXXXXXXo XXXXXXXXXXXXXXo",
" XXXXXXXXXXXXXXo XXXXXXXXXXXXXXo",
" XXXXXXXXXXXXXXo XXXXXXXXXXXXXXo",
" XXXXXXXXXXXXXXo XXXXXXXXXXXXXXo",
" XXXXXXXXXXXXXXo XXXXXXXXXXXXXXo",
" oooooooooooooo. oooooooooooooo.",
"                                ",
" XXXXXXXXXXXXXXo XXXXXXXXXXXXXXo",
" XXXXXXXXXXXXXXo XXXXXXXXXXXXXXo",
" XXXXXXXXXXXXXXo XXXXXXXXXXXXXXo",
" XXXXXXXXXXXXXXo XXXXXXXXXXXXXXo",
" XXXXXXXXXXXXXXo XXXXXXXXXXXXXXo",
" XXXXXXXXXXXXXXo XXXXXXXXXXXXXXo",
" XXXXXXXXXXXXXXo XXXXXXXXXXXXXXo",
" XXXXXXXXXXXXXXo XXXXXXXXXXXXXXo",
" XXXXXXXXXXXXXXo XXXXXXXXXXXXXXo",
" XXXXXXXXXXXXXXo XXXXXXXXXXXXXXo",
" XXXXXXXXXXXXXXo XXXXXXXXXXXXXXo",
" XXXXXXXXXXXXXXo XXXXXXXXXXXXXXo",
" XXXXXXXXXXXXXXo XXXXXXXXXXXXXXo",
" XXXXXXXXXXXXXXo XXXXXXXXXXXXXXo",
" oooooooooooooo. oooooooooooooo."
};
