/* XPM */
static char *_[] = {
/* columns rows colors chars-per-pixel */
"32 32 11 1 ",
"  c #181526",
". c #26243A",
"X c #2B2941",
"o c #393A56",
"O c #3E405D",
"+ c #4E5371",
"@ c #0E82CE",
"# c #12A7EA",
"$ c #13B2F2",
"% c #37E5FA",
"& c #41F3FC",
/* pixels */
"+++++++++++++++O+++++++++++++++O",
"+oooooooooooooo.+oooooooooooooo.",
"+oooooooooooooo.+oooooooooooooo.",
"+oooooooooooooo.+oooooooooooooo.",
"+oooooooooooooo.+oooooooooooooo.",
"+oooooooooooooo.+oooooooooooooo.",
"+oooooooooooooo.+oooooooooooooo.",
"+oooooooooooo%&&&&%oooooooooooo.",
"+ooooooooooo$&&&&&&$ooooooooooo.",
"+oooooooooo#&&%&&%&&#oooooooooo.",
"+oooooooooo&&%&&&&%&&oooooooooo.",
"+oooooooooo&&%&&&&%&&oooooooooo.",
"+oooooooooo#&&%&&%&&#oooooooooo.",
"+oooooooooo@$&&&&&&$@oooooooooo.",
"+ooooooooo @#%&&&&%#@ ooooooooo.",
"+........ O@#$%&&%$#@O ........O",
"+++++++++ O@#$%&&%$#@O +++++++++",
"+oooooooo OO#$%&&%$#OO oooooooo.",
"+oooooooo .O#$%&&%$#O. oooooooo.",
"+oooooooo ..OO%&&%OO.. oooooooo.",
"+oooooooo ..XOOOOOOX.. oooooooo.",
"+oooooooo ..XooOOooX.. oooooooo.",
"+oooooooo ..XooOOooX.. oooooooo.",
"+oooooooo ..XooOOooX.. oooooooo.",
"+ooooooooo .XooOOooX. ooooooooo.",
"+oooooooooo XooOOooX oooooooooo.",
"+ooooooooooo ooOOoo ooooooooooo.",
"+oooooooooooo      oooooooooooo.",
"+oooooooooooooo.+oooooooooooooo.",
"+oooooooooooooo.+oooooooooooooo.",
"+oooooooooooooo.+oooooooooooooo.",
"+..............O+..............O"
};
