/* XPM */
static char *_[] = {
/* columns rows colors chars-per-pixel */
"32 32 23 1 ",
"  c black",
". c #24110E",
"X c #24180D",
"o c #352516",
"O c #26243A",
"+ c #4D390C",
"@ c #4A261F",
"# c #473220",
"$ c #663931",
"% c #13410A",
"& c #393A56",
"* c #3E405D",
"= c #4E5371",
"- c #A96A4D",
"; c #2E8E1B",
": c #6ABE30",
"> c #FBBD36",
", c #AC8A50",
"< c #BE8B5D",
"1 c #D8876A",
"2 c #D8B270",
"3 c #F3D49E",
"4 c white",
/* pixels */
"===============*===============*",
"=&&&&&&&&&&&&&&O=&&&&&&&&&&&&&&O",
"=&&&&&&&&&&&&&&O=&&&&&&&&&&&&&&O",
"=&&&&&&&&&&&&&&O=&&&&&&&&&&&&&&O",
"=&&&&&&&&&&&&&&O=&&&&&&&&&&&&&&O",
"=&&&&&&&&&&&&&&O=&&&&&&&&&&&&&&O",
"=&&&&&&&&&&&&&&O=&&&&&&&&&&&&&&O",
"=&&&&&&&&&&&&&&O=&&&&&&&&&&&&&&O",
"=&&&&&&&&&&&&&&O=&&&&&&&&&&&&&&O",
"=&&&&&&&&&&&&&&O=&&&&&&&&&&&&&&O",
"=&&&&&&&&&&&&&&O=&&&&&&&&&&&&&&O",
"=&&&&&&&&&&&&&&O=&&&&&&&&&&&&&&O",
"=&&&&&&&&&&&&&&O=&&&&&&&&&&&&&&O",
"=&&&&&&&&&&4444444444&&&&&&&&&&O",
"=&&&&&&&&44##########44&&&&&&&&O",
"=OOOOOOO4##3333333333##4OOOOOOO*",
"=======4#33222222222233#4=======",
"=&&&&&4#32222 4222222 43#4&&&&&O",
"=&&&&&4o22221  222,,2  1o4&&&&&O",
"=&&&&&4o2222112222222211o4&&&&&O",
"=&&&&&4oooooooooooooooooo4&&&&&O",
"=&&&&4%:;;;;;;;%%;;;;;;;:%4&&&&O",
"=&&&&&4%:::::%%@@%%:::%%%4&&&&&O",
"=&&&&&4.%%:%@@$$$@@%:%@@.4&&&&&O",
"=&&&&&4...%.........%....4&&&&&O",
"=&&&&4+>>>>>>>>>>>>>>>>>>+4&&&&O",
"=&&&&4+>+++>>>++++++++++>+4&&&&O",
"=&&&&&4+X--++>+--------X+4&&&&&O",
"=&&&&&&4X<<--+-<<<<<<<<X4&&&&&&O",
"=&&&&&&&4XXXXXXXXXXXXXX4&&&&&&&O",
"=&&&&&&&&44XX444444XX44&&&&&&&&O",
"=OOOOOOOOOO44OO*=OO44OOOOOOOOOO*"
};
